<?xml version="1.0" encoding="UTF-8"?>
<!DOCTYPE svg PUBLIC "-//W3C//DTD SVG 1.1//EN" "http://www.w3.org/Graphics/SVG/1.1/DTD/svg11.dtd">
<svg xmlns="http://www.w3.org/2000/svg" version="1.1" width="1400px" height="1400px" style="shape-rendering:geometricPrecision; text-rendering:geometricPrecision; image-rendering:optimizeQuality; fill-rule:evenodd; clip-rule:evenodd" xmlns:xlink="http://www.w3.org/1999/xlink">
<g><path style="opacity:0.997" fill="#e6e5ef" d="M 696.5,260.5 C 712.895,272.717 728.895,285.55 744.5,299C 784.244,323.466 827.578,336.466 874.5,338C 918.931,339.224 962.264,332.891 1004.5,319C 1045.5,304.5 1086.5,290 1127.5,275.5C 1121.55,461.308 1077.05,637.308 994,803.5C 942.124,907.021 872.958,997.521 786.5,1075C 757.51,1099 727.676,1121.83 697,1143.5C 593.573,1073.07 508.907,984.742 443,878.5C 356.596,734.635 301.929,579.301 279,412.5C 273.927,366.873 270.094,321.207 267.5,275.5C 308.5,290 349.5,304.5 390.5,319C 450.473,339.332 511.473,343.332 573.5,331C 599.953,325.296 624.62,315.296 647.5,301C 663.904,287.481 680.237,273.981 696.5,260.5 Z"/></g>
<g><path style="opacity:1" fill="#0d397f" d="M 695.5,267.5 C 698.14,267.954 700.473,269.121 702.5,271C 715.982,282.572 729.649,293.905 743.5,305C 792.54,333.791 845.54,346.458 902.5,343C 928.204,341.792 953.538,338.125 978.5,332C 1026.77,316.438 1074.77,300.272 1122.5,283.5C 1114.92,457.156 1074.09,622.489 1000,779.5C 956.782,869.003 901.448,950.003 834,1022.5C 792.127,1065.24 746.627,1103.24 697.5,1136.5C 591.256,1064.62 505.423,973.616 440,863.5C 355.624,718.039 302.957,561.706 282,394.5C 278.713,359.01 275.546,323.51 272.5,288C 272.833,286.5 273.167,285 273.5,283.5C 306.795,295.432 340.129,307.265 373.5,319C 439.232,343.573 506.565,349.24 575.5,336C 602.931,329.447 628.598,318.78 652.5,304C 667.276,292.29 681.609,280.123 695.5,267.5 Z"/></g>
<g><path style="opacity:1" fill="#13120f" d="M 1062.5,364.5 C 1036.9,373.902 1010.9,382.068 984.5,389C 941.384,399.253 897.717,402.586 853.5,399C 804.065,394.385 758.065,379.385 715.5,354C 709.603,349.099 703.436,344.599 697,340.5C 676.175,357.334 653.009,370.167 627.5,379C 566.303,400.66 503.636,405.993 439.5,395C 421.932,391.941 404.599,387.941 387.5,383C 369.44,377.257 351.44,371.424 333.5,365.5C 345.841,492.867 378.174,614.867 430.5,731.5C 428.811,732.304 427.145,733.304 425.5,734.5C 399.521,677.742 378.354,619.075 362,558.5C 349.574,512.04 339.574,465.04 332,417.5C 329.448,396.88 327.782,376.214 327,355.5C 371.347,374.13 417.514,386.297 465.5,392C 543.783,401.337 616.116,385.337 682.5,344C 687.354,339.645 692.354,335.478 697.5,331.5C 717.529,349.351 740.196,362.851 765.5,372C 821.498,392.608 879.164,398.941 938.5,391C 983.809,384.666 1027.31,372.499 1069,354.5C 1069.81,356.902 1069.65,359.235 1068.5,361.5C 1066.47,362.513 1064.47,363.513 1062.5,364.5 Z"/></g>
<g><path style="opacity:1" fill="#f5de06" d="M 1062.5,364.5 C 1029.7,384.071 996.7,403.404 963.5,422.5C 893.83,435.029 825.496,429.862 758.5,407C 736.95,398.808 716.45,388.641 697,376.5C 645.008,408.05 588.508,425.55 527.5,429C 491.909,429.979 456.575,427.312 421.5,421C 403.153,416.33 384.82,411.83 366.5,407.5C 379.559,499.743 403.226,589.077 437.5,675.5C 430.826,690.805 428.66,706.805 431,723.5C 432.079,726.063 432.579,728.729 432.5,731.5C 431.833,731.5 431.167,731.5 430.5,731.5C 378.174,614.867 345.841,492.867 333.5,365.5C 351.44,371.424 369.44,377.257 387.5,383C 404.599,387.941 421.932,391.941 439.5,395C 503.636,405.993 566.303,400.66 627.5,379C 653.009,370.167 676.175,357.334 697,340.5C 703.436,344.599 709.603,349.099 715.5,354C 758.065,379.385 804.065,394.385 853.5,399C 897.717,402.586 941.384,399.253 984.5,389C 1010.9,382.068 1036.9,373.902 1062.5,364.5 Z"/></g>
<g><path style="opacity:1" fill="#121110" d="M 963.5,422.5 C 958.192,425.459 952.858,428.459 947.5,431.5C 880.388,440.521 815.055,433.688 751.5,411C 732.533,403.683 714.533,394.517 697.5,383.5C 651.607,411.075 601.94,427.575 548.5,433C 508.963,437.229 469.63,435.896 430.5,429C 411.436,424.82 392.436,420.32 373.5,415.5C 386.519,500.958 408.686,583.958 440,664.5C 440.417,665.756 441.25,666.423 442.5,666.5C 440.319,669.314 438.652,672.314 437.5,675.5C 403.226,589.077 379.559,499.743 366.5,407.5C 384.82,411.83 403.153,416.33 421.5,421C 456.575,427.312 491.909,429.979 527.5,429C 588.508,425.55 645.008,408.05 697,376.5C 716.45,388.641 736.95,398.808 758.5,407C 825.496,429.862 893.83,435.029 963.5,422.5 Z"/></g>
<g><path style="opacity:1" fill="#fdfdfd" d="M 947.5,431.5 C 887.835,466.669 827.835,501.335 767.5,535.5C 741.136,502.215 707.469,491.715 666.5,504C 640.415,515.585 623.415,535.085 615.5,562.5C 571.588,553.291 538.421,567.957 516,606.5C 512.927,612.884 510.761,619.551 509.5,626.5C 480.189,628.316 457.855,641.649 442.5,666.5C 441.25,666.423 440.417,665.756 440,664.5C 408.686,583.958 386.519,500.958 373.5,415.5C 392.436,420.32 411.436,424.82 430.5,429C 469.63,435.896 508.963,437.229 548.5,433C 601.94,427.575 651.607,411.075 697.5,383.5C 714.533,394.517 732.533,403.683 751.5,411C 815.055,433.688 880.388,440.521 947.5,431.5 Z"/></g>
<g><path style="opacity:1" fill="#040404" d="M 483.5,467.5 C 498.953,465.117 512.62,468.783 524.5,478.5C 527.937,476.906 531.27,475.073 534.5,473C 536.902,472.186 539.235,472.353 541.5,473.5C 535.926,485.974 530.926,498.641 526.5,511.5C 523.833,511.5 521.167,511.5 518.5,511.5C 523.832,483.336 512.499,471.502 484.5,476C 473.807,480.335 468.307,488.168 468,499.5C 469.105,502.937 471.272,505.437 474.5,507C 485.833,512 497.167,517 508.5,522C 513.551,524.72 516.718,528.887 518,534.5C 518.495,563.36 504.328,580.193 475.5,585C 458.702,588.585 443.702,585.085 430.5,574.5C 427.736,575.761 425.403,577.595 423.5,580C 420.854,580.497 418.187,580.664 415.5,580.5C 420.26,566.973 425.594,553.64 431.5,540.5C 434.086,539.52 436.753,539.187 439.5,539.5C 434.604,553.417 437.604,565.25 448.5,575C 460.636,579.888 472.636,579.554 484.5,574C 494.247,568.017 498.08,559.517 496,548.5C 494.127,546.291 491.96,544.458 489.5,543C 478.864,538.351 468.197,533.684 457.5,529C 448.033,522.61 444.866,513.777 448,502.5C 450.223,491.278 456.057,482.444 465.5,476C 471.417,472.657 477.417,469.823 483.5,467.5 Z"/></g>
<g><path style="opacity:1" fill="#020203" d="M 928.5,467.5 C 944.849,465.499 959.182,469.833 971.5,480.5C 974.219,478.781 976.219,476.447 977.5,473.5C 980.167,472.167 982.833,472.167 985.5,473.5C 982.349,486.753 979.516,500.086 977,513.5C 974.619,514.435 972.119,514.768 969.5,514.5C 970.296,503.692 967.962,493.692 962.5,484.5C 951.498,474.679 939.164,472.846 925.5,479C 909.178,491.794 899.678,508.627 897,529.5C 896.333,538.167 896.333,546.833 897,555.5C 901.698,569.867 911.698,577.2 927,577.5C 944.988,575.174 957.488,565.674 964.5,549C 967.18,548.665 969.513,549.499 971.5,551.5C 964.031,570.237 950.364,581.403 930.5,585C 914.723,587.797 900.056,585.131 886.5,577C 875.064,567.376 869.398,555.043 869.5,540C 869.725,515.794 879.059,495.794 897.5,480C 906.885,473.249 917.218,469.082 928.5,467.5 Z"/></g>
<g><path style="opacity:1" fill="#040404" d="M 767.5,535.5 C 768.809,538.778 770.642,541.778 773,544.5C 775.653,550.288 777.819,556.288 779.5,562.5C 780.71,568.096 781.377,573.762 781.5,579.5C 781.293,613.937 766.627,639.937 737.5,657.5C 736.032,653.258 735.366,648.758 735.5,644C 735.502,640.979 735.836,638.146 736.5,635.5C 736.369,636.239 736.536,636.906 737,637.5C 752.942,624.948 762.108,608.615 764.5,588.5C 764.823,581.978 764.49,575.645 763.5,569.5C 761.942,560.13 758.275,551.797 752.5,544.5C 734.58,520.886 710.914,511.719 681.5,517C 654.557,524.725 637.89,542.225 631.5,569.5C 629.438,576.002 629.104,582.669 630.5,589.5C 631.049,597.807 633.382,605.473 637.5,612.5C 641.933,622.938 648.933,631.271 658.5,637.5C 658.705,643.878 658.372,650.211 657.5,656.5C 641.417,648.085 629.417,635.751 621.5,619.5C 615.981,606.754 613.314,593.421 613.5,579.5C 613.93,573.761 614.596,568.095 615.5,562.5C 623.415,535.085 640.415,515.585 666.5,504C 707.469,491.715 741.136,502.215 767.5,535.5 Z"/></g>
<g><path style="opacity:1" fill="#fdfdfd" d="M 752.5,544.5 C 722.835,562.335 692.835,579.669 662.5,596.5C 654.338,585.005 644.005,576.005 631.5,569.5C 637.89,542.225 654.557,524.725 681.5,517C 710.914,511.719 734.58,520.886 752.5,544.5 Z"/></g>
<g><path style="opacity:1" fill="#11100f" d="M 497.5,857.5 C 550.295,941.476 616.629,1013.31 696.5,1073C 697.167,1073.67 697.833,1073.67 698.5,1073C 756.844,1030.66 808.011,980.824 852,923.5C 935.909,810.343 995.076,685.343 1029.5,548.5C 1031.19,546.834 1033.19,545.5 1035.5,544.5C 1001.61,684.288 941.773,811.955 856,927.5C 810.678,986.156 758.178,1037.32 698.5,1081C 696.721,1080.96 695.055,1080.29 693.5,1079C 612.632,1018.64 545.632,945.811 492.5,860.5C 493.421,858.244 495.088,857.244 497.5,857.5 Z"/></g>
<g><path style="opacity:1" fill="#0e3a7f" d="M 752.5,544.5 C 758.275,551.797 761.942,560.13 763.5,569.5C 733.58,586.649 718.58,612.649 718.5,647.5C 704.696,650.468 691.03,650.135 677.5,646.5C 676.833,642.167 676.167,637.833 675.5,633.5C 674.935,626.635 673.435,619.968 671,613.5C 668.14,607.78 665.307,602.114 662.5,596.5C 692.835,579.669 722.835,562.335 752.5,544.5 Z"/></g>
<g><path style="opacity:1" fill="#70a43c" d="M 615.5,562.5 C 614.596,568.095 613.93,573.761 613.5,579.5C 583.076,571.391 557.909,579.391 538,603.5C 532.816,610.867 528.983,618.867 526.5,627.5C 525.034,632.692 524.367,638.025 524.5,643.5C 524.579,653.733 526.913,663.399 531.5,672.5C 539.438,688.601 551.771,700.101 568.5,707C 572.688,708.631 577.021,709.464 581.5,709.5C 581.377,715.238 580.71,720.904 579.5,726.5C 560.984,724.325 545.151,716.658 532,703.5C 526.198,696.88 521.032,689.88 516.5,682.5C 511.148,670.088 508.148,657.088 507.5,643.5C 507.607,637.752 508.274,632.085 509.5,626.5C 510.761,619.551 512.927,612.884 516,606.5C 538.421,567.957 571.588,553.291 615.5,562.5 Z"/></g>
<g><path style="opacity:1" fill="#f5de0e" d="M 887.5,643.5 C 885.635,680.412 867.968,706.579 834.5,722C 828.313,724.232 821.979,725.732 815.5,726.5C 813.877,720.991 813.21,715.324 813.5,709.5C 848.844,701.811 867.844,679.811 870.5,643.5C 867.358,606.739 847.692,584.573 811.5,577C 801.31,575.895 791.31,576.728 781.5,579.5C 781.377,573.762 780.71,568.096 779.5,562.5C 820.665,553.712 852.832,566.712 876,601.5C 882.955,614.656 886.789,628.656 887.5,643.5 Z"/></g>
<g><path style="opacity:1" fill="#6ea33c" d="M 631.5,569.5 C 644.005,576.005 654.338,585.005 662.5,596.5C 665.307,602.114 668.14,607.78 671,613.5C 673.435,619.968 674.935,626.635 675.5,633.5C 675.92,643.604 675.254,653.604 673.5,663.5C 662.5,701.832 637.167,723.165 597.5,727.5C 598.134,721.855 598.468,716.189 598.5,710.5C 630.281,705.718 649.948,687.718 657.5,656.5C 658.372,650.211 658.705,643.878 658.5,637.5C 657.897,625.984 654.23,615.651 647.5,606.5C 643.479,599.145 637.812,593.479 630.5,589.5C 629.104,582.669 629.438,576.002 631.5,569.5 Z"/></g>
<g><path style="opacity:1" fill="#f5dd0e" d="M 763.5,569.5 C 764.49,575.645 764.823,581.978 764.5,588.5C 748.544,600.144 739.211,615.81 736.5,635.5C 735.836,638.146 735.502,640.979 735.5,644C 735.366,648.758 736.032,653.258 737.5,657.5C 741.327,676.16 751.327,690.493 767.5,700.5C 776.129,706.6 785.796,709.933 796.5,710.5C 796.324,715.88 796.658,721.213 797.5,726.5C 789.399,727.432 781.399,726.265 773.5,723C 765.44,719.413 757.773,715.246 750.5,710.5C 739.482,700.652 730.982,688.985 725,675.5C 723.726,671.846 722.56,668.18 721.5,664.5C 720.183,658.875 719.183,653.208 718.5,647.5C 718.58,612.649 733.58,586.649 763.5,569.5 Z"/></g>
<g><path style="opacity:1" fill="#0c0c0d" d="M 990.5,580.5 C 984.129,598.614 978.129,616.947 972.5,635.5C 971.935,639.537 970.601,643.203 968.5,646.5C 965.929,651.537 963.929,656.871 962.5,662.5C 960.754,666.327 958.754,669.993 956.5,673.5C 955.594,670.926 954.261,668.593 952.5,666.5C 953.75,666.423 954.583,665.756 955,664.5C 966.269,634.527 976.435,604.194 985.5,573.5C 987.604,572.088 989.937,571.088 992.5,570.5C 991.626,573.789 990.959,577.123 990.5,580.5 Z"/></g>
<g><path style="opacity:1" fill="#fcfcfd" d="M 985.5,573.5 C 976.435,604.194 966.269,634.527 955,664.5C 954.583,665.756 953.75,666.423 952.5,666.5C 938.922,644.451 919.255,631.285 893.5,627C 924.03,608.903 954.697,591.069 985.5,573.5 Z"/></g>
<g><path style="opacity:1" fill="#fdfdfd" d="M 613.5,579.5 C 613.314,593.421 615.981,606.754 621.5,619.5C 621.063,621.074 620.063,622.241 618.5,623C 603.108,631.356 588.108,640.189 573.5,649.5C 560.305,637.071 544.638,629.738 526.5,627.5C 528.983,618.867 532.816,610.867 538,603.5C 557.909,579.391 583.076,571.391 613.5,579.5 Z"/></g>
<g><path style="opacity:1" fill="#f2f3f2" d="M 630.5,589.5 C 637.812,593.479 643.479,599.145 647.5,606.5C 643.827,608 640.494,610 637.5,612.5C 633.382,605.473 631.049,597.807 630.5,589.5 Z"/></g>
<g><path style="opacity:1" fill="#223d7d" d="M 764.5,588.5 C 762.108,608.615 752.942,624.948 737,637.5C 736.536,636.906 736.369,636.239 736.5,635.5C 739.211,615.81 748.544,600.144 764.5,588.5 Z"/></g>
<g><path style="opacity:1" fill="#193c7e" d="M 647.5,606.5 C 654.23,615.651 657.897,625.984 658.5,637.5C 648.933,631.271 641.933,622.938 637.5,612.5C 640.494,610 643.827,608 647.5,606.5 Z"/></g>
<g><path style="opacity:1" fill="#625c70" d="M 990.5,580.5 C 985.675,599.307 979.675,617.64 972.5,635.5C 978.129,616.947 984.129,598.614 990.5,580.5 Z"/></g>
<g><path style="opacity:1" fill="#0d397e" d="M 621.5,619.5 C 629.417,635.751 641.417,648.085 657.5,656.5C 649.948,687.718 630.281,705.718 598.5,710.5C 598.155,686.777 589.822,666.444 573.5,649.5C 588.108,640.189 603.108,631.356 618.5,623C 620.063,622.241 621.063,621.074 621.5,619.5 Z"/></g>
<g><path style="opacity:1" fill="#ad1318" d="M 509.5,626.5 C 508.274,632.085 507.607,637.752 507.5,643.5C 484.97,646.207 467.804,657.207 456,676.5C 453.603,680.624 451.769,684.957 450.5,689.5C 448.864,693.21 448.198,697.21 448.5,701.5C 447.167,708.167 447.167,714.833 448.5,721.5C 453.009,745.854 466.676,763.02 489.5,773C 514.097,781.183 536.764,777.516 557.5,762C 568.534,752.427 575.867,740.594 579.5,726.5C 580.71,720.904 581.377,715.238 581.5,709.5C 581.345,688.306 573.012,671.306 556.5,658.5C 547.381,650.448 536.714,645.448 524.5,643.5C 524.367,638.025 525.034,632.692 526.5,627.5C 544.638,629.738 560.305,637.071 573.5,649.5C 589.822,666.444 598.155,686.777 598.5,710.5C 598.468,716.189 598.134,721.855 597.5,727.5C 581.964,776.122 548.631,797.955 497.5,793C 464.138,784.686 442.471,764.186 432.5,731.5C 432.579,728.729 432.079,726.063 431,723.5C 428.66,706.805 430.826,690.805 437.5,675.5C 438.652,672.314 440.319,669.314 442.5,666.5C 457.855,641.649 480.189,628.316 509.5,626.5 Z"/></g>
<g><path style="opacity:1" fill="#fdfcfc" d="M 507.5,643.5 C 508.148,657.088 511.148,670.088 516.5,682.5C 498.562,692.138 480.895,702.304 463.5,713C 462.552,713.483 461.552,713.649 460.5,713.5C 456.69,705.693 453.357,697.693 450.5,689.5C 451.769,684.957 453.603,680.624 456,676.5C 467.804,657.207 484.97,646.207 507.5,643.5 Z"/></g>
<g><path style="opacity:1" fill="#fdfdfd" d="M 887.5,643.5 C 915.243,647.746 934.243,662.913 944.5,689C 944.257,689.902 943.923,690.735 943.5,691.5C 932.261,718.646 919.928,745.313 906.5,771.5C 869.999,784.334 841.499,774.334 821,741.5C 818.664,736.657 816.831,731.657 815.5,726.5C 821.979,725.732 828.313,724.232 834.5,722C 867.968,706.579 885.635,680.412 887.5,643.5 Z"/></g>
<g><path style="opacity:1" fill="#fcfaf9" d="M 524.5,643.5 C 536.714,645.448 547.381,650.448 556.5,658.5C 548.659,663.923 540.326,668.59 531.5,672.5C 526.913,663.399 524.579,653.733 524.5,643.5 Z"/></g>
<g><path style="opacity:1" fill="#fdfdfd" d="M 870.5,643.5 C 867.844,679.811 848.844,701.811 813.5,709.5C 813.76,692.317 819.593,677.317 831,664.5C 838.904,658.128 847.404,652.628 856.5,648C 860.913,645.584 865.579,644.084 870.5,643.5 Z"/></g>
<g><path style="opacity:1" fill="#4d606d" d="M 675.5,633.5 C 676.167,637.833 676.833,642.167 677.5,646.5C 677.16,652.208 676.493,657.875 675.5,663.5C 674.833,663.5 674.167,663.5 673.5,663.5C 675.254,653.604 675.92,643.604 675.5,633.5 Z"/></g>
<g><path style="opacity:1" fill="#040403" d="M 677.5,646.5 C 691.03,650.135 704.696,650.468 718.5,647.5C 719.183,653.208 720.183,658.875 721.5,664.5C 706.074,667.495 690.741,667.161 675.5,663.5C 676.493,657.875 677.16,652.208 677.5,646.5 Z"/></g>
<g><path style="opacity:1" fill="#645e6d" d="M 968.5,646.5 C 967.464,652.285 965.464,657.618 962.5,662.5C 963.929,656.871 965.929,651.537 968.5,646.5 Z"/></g>
<g><path style="opacity:1" fill="#123a7e" d="M 556.5,658.5 C 573.012,671.306 581.345,688.306 581.5,709.5C 577.021,709.464 572.688,708.631 568.5,707C 551.771,700.101 539.438,688.601 531.5,672.5C 540.326,668.59 548.659,663.923 556.5,658.5 Z"/></g>
<g><path style="opacity:1" fill="#645e70" d="M 962.5,662.5 C 961.63,667.223 959.964,671.556 957.5,675.5C 956.662,675.158 956.328,674.492 956.5,673.5C 958.754,669.993 960.754,666.327 962.5,662.5 Z"/></g>
<g><path style="opacity:1" fill="#fafafa" d="M 796.5,710.5 C 785.796,709.933 776.129,706.6 767.5,700.5C 778.27,693.608 789.27,686.941 800.5,680.5C 800.833,680.833 801.167,681.167 801.5,681.5C 797.874,690.776 796.207,700.443 796.5,710.5 Z"/></g>
<g><path style="opacity:1" fill="#0d397e" d="M 516.5,682.5 C 521.032,689.88 526.198,696.88 532,703.5C 545.151,716.658 560.984,724.325 579.5,726.5C 575.867,740.594 568.534,752.427 557.5,762C 536.764,777.516 514.097,781.183 489.5,773C 466.676,763.02 453.009,745.854 448.5,721.5C 450.216,719.975 452.216,718.975 454.5,718.5C 456.525,716.804 458.525,715.137 460.5,713.5C 461.552,713.649 462.552,713.483 463.5,713C 480.895,702.304 498.562,692.138 516.5,682.5 Z"/></g>
<g><path style="opacity:1" fill="#161514" d="M 450.5,689.5 C 453.357,697.693 456.69,705.693 460.5,713.5C 458.525,715.137 456.525,716.804 454.5,718.5C 453.298,712.56 451.298,706.893 448.5,701.5C 448.198,697.21 448.864,693.21 450.5,689.5 Z"/></g>
<g><path style="opacity:1" fill="#151416" d="M 943.5,691.5 C 944.117,691.611 944.617,691.944 945,692.5C 945.776,695.889 946.609,699.222 947.5,702.5C 943.167,711.167 938.833,719.833 934.5,728.5C 932.043,731.751 930.376,735.418 929.5,739.5C 925.784,747.933 921.784,756.267 917.5,764.5C 917.624,765.107 917.957,765.44 918.5,765.5C 914.818,768.008 910.818,770.008 906.5,771.5C 919.928,745.313 932.261,718.646 943.5,691.5 Z"/></g>
<g><path style="opacity:1" fill="#f1d815" d="M 448.5,701.5 C 451.298,706.893 453.298,712.56 454.5,718.5C 452.216,718.975 450.216,719.975 448.5,721.5C 447.167,714.833 447.167,708.167 448.5,701.5 Z"/></g>
<g><path style="opacity:1" fill="#f3db15" d="M 947.5,702.5 C 949.162,728.898 939.495,749.898 918.5,765.5C 917.957,765.44 917.624,765.107 917.5,764.5C 921.784,756.267 925.784,747.933 929.5,739.5C 931.957,736.249 933.624,732.582 934.5,728.5C 938.833,719.833 943.167,711.167 947.5,702.5 Z"/></g>
<g><path style="opacity:1" fill="#fdfdfd" d="M 750.5,710.5 C 757.773,715.246 765.44,719.413 773.5,723C 781.399,726.265 789.399,727.432 797.5,726.5C 805.331,758.173 824.665,779.673 855.5,791C 860.406,792.476 865.406,793.476 870.5,794C 878.384,794.373 886.05,794.54 893.5,794.5C 846.141,880.729 784.807,955.896 709.5,1020C 705.636,1023.09 701.636,1025.93 697.5,1028.5C 693.787,1026.96 690.453,1024.79 687.5,1022C 624.065,969.432 571.065,908.265 528.5,838.5C 602.201,795.316 676.201,752.65 750.5,710.5 Z"/></g>
<g><path style="opacity:1" fill="#69626d" d="M 934.5,728.5 C 933.624,732.582 931.957,736.249 929.5,739.5C 930.376,735.418 932.043,731.751 934.5,728.5 Z"/></g>
<g><path style="opacity:1" fill="#f5dd08" d="M 1029.5,548.5 C 995.076,685.343 935.909,810.343 852,923.5C 808.011,980.824 756.844,1030.66 698.5,1073C 697.833,1073.67 697.167,1073.67 696.5,1073C 616.629,1013.31 550.295,941.476 497.5,857.5C 505.549,852.137 513.882,847.137 522.5,842.5C 569.072,917.756 627.406,982.756 697.5,1037.5C 782.736,970.291 850.736,888.958 901.5,793.5C 921.016,786.642 937.182,774.975 950,758.5C 966.357,732.087 968.857,704.42 957.5,675.5C 959.964,671.556 961.63,667.223 962.5,662.5C 965.464,657.618 967.464,652.285 968.5,646.5C 970.601,643.203 971.935,639.537 972.5,635.5C 979.675,617.64 985.675,599.307 990.5,580.5C 992.234,576.441 993.9,572.274 995.5,568C 1007.02,561.741 1018.36,555.241 1029.5,548.5 Z"/></g>
<g><path style="opacity:1" fill="#131312" d="M 901.5,793.5 C 850.736,888.958 782.736,970.291 697.5,1037.5C 627.406,982.756 569.072,917.756 522.5,842.5C 524.205,840.808 526.205,839.475 528.5,838.5C 571.065,908.265 624.065,969.432 687.5,1022C 690.453,1024.79 693.787,1026.96 697.5,1028.5C 701.636,1025.93 705.636,1023.09 709.5,1020C 784.807,955.896 846.141,880.729 893.5,794.5C 896.237,793.125 898.904,792.791 901.5,793.5 Z"/></g>
<g><path style="opacity:1" fill="#040405" d="M 674.5,799.5 C 700.502,799.333 726.502,799.5 752.5,800C 774.441,804.717 779.941,816.884 769,836.5C 764.814,841.674 759.647,845.508 753.5,848C 746.231,850.317 738.898,852.317 731.5,854C 757.672,857.845 764.505,871.345 752,894.5C 745.728,902.051 737.895,907.218 728.5,910C 723.531,911.159 718.531,912.159 713.5,913C 684.494,913.833 655.494,913.667 626.5,912.5C 627.747,910.677 628.414,908.677 628.5,906.5C 633.179,906.666 637.845,906.499 642.5,906C 644.333,904.833 645.833,903.333 647,901.5C 660.377,872.41 674.044,843.41 688,814.5C 688.944,811.653 688.444,809.153 686.5,807C 681.5,806.667 676.5,806.333 671.5,806C 672.406,803.779 673.406,801.612 674.5,799.5 Z"/></g>
<g><path style="opacity:1" fill="#fafafa" d="M 718.5,807.5 C 725.508,807.334 732.508,807.5 739.5,808C 745.48,809.446 748.48,813.279 748.5,819.5C 745.715,837.451 735.382,847.951 717.5,851C 710.508,851.5 703.508,851.666 696.5,851.5C 701.561,839.828 706.728,828.161 712,816.5C 713.611,813.062 715.777,810.062 718.5,807.5 Z"/></g>
<g><path style="opacity:1" fill="#fbfbfb" d="M 691.5,858.5 C 700.839,858.334 710.173,858.5 719.5,859C 731.895,863.294 735.395,871.461 730,883.5C 724.58,896.262 715.08,903.762 701.5,906C 692.167,906.667 682.833,906.667 673.5,906C 672.409,903.936 672.242,901.769 673,899.5C 679.733,886.038 685.9,872.372 691.5,858.5 Z"/></g>
</svg>
